<svg id="Lager_1" data-name="Lager 1" xmlns="http://www.w3.org/2000/svg" viewBox="0 0 313.35 103.71"><defs><style>.cls-1{fill:}</style></defs><title>mpya_digital_logo_white</title><polygon class="cls-1" points="42.53 60.24 8.31 0 0 0 0 65.92 7.08 65.92 7.08 12.33 37.66 65.95 47.41 65.95 78.19 12.02 78.19 65.92 85.27 65.92 85.27 0 76.91 0 42.53 60.24"/><path class="cls-1" d="M400.6,245.16l-31.87,0v66h7.08V294.37H400.6c14.53,0,26.36-11,26.36-24.6S415.14,245.16,400.6,245.16Zm0,42.12H375.81v-35H400.6c10.63,0,19.28,7.86,19.28,17.52S411.24,287.29,400.6,287.29Z" transform="translate(-264.78 -245.15)"/><polygon class="cls-1" points="226.83 0 202.73 41.58 178.63 0 170.45 0 199.19 49.59 199.19 65.95 206.27 65.95 206.27 49.59 235.01 0 226.83 0"/><polygon class="cls-1" points="275.1 0 267.03 0 228.8 65.95 236.98 65.95 271.06 7.15 305.17 65.95 313.35 65.95 275.1 0"/><circle class="cls-1" cx="271.08" cy="52.52" r="4.87"/><path class="cls-1" d="M328.61,348.53h-7.22V330h7.22c5.82,0,9.84,4,9.84,9.21v.05C338.45,344.49,334.43,348.53,328.61,348.53Zm5.58-9.26a5.32,5.32,0,0,0-5.58-5.58h-3.15v11.17h3.15a5.28,5.28,0,0,0,5.58-5.53Z" transform="translate(-264.78 -245.15)"/><path class="cls-1" d="M356.56,348.53V330h4.08v18.52Z" transform="translate(-264.78 -245.15)"/><path class="cls-1" d="M389,348.85c-5.77,0-9.74-4-9.74-9.53v-.05a9.51,9.51,0,0,1,9.71-9.58,10.17,10.17,0,0,1,7.28,2.54l-2.57,3.1a6.82,6.82,0,0,0-4.84-1.88,5.56,5.56,0,0,0-5.32,5.77v.05a5.55,5.55,0,0,0,5.61,5.87A6.5,6.5,0,0,0,393,344v-2.65h-4.1v-3.52h8v8A12,12,0,0,1,389,348.85Z" transform="translate(-264.78 -245.15)"/><path class="cls-1" d="M416.89,348.53V330H421v18.52Z" transform="translate(-264.78 -245.15)"/><path class="cls-1" d="M449.34,333.77v14.77h-4.08V333.77h-5.64V330H455v3.76Z" transform="translate(-264.78 -245.15)"/><path class="cls-1" d="M484.32,348.53l-1.69-4.15h-7.83l-1.69,4.15h-4.15l7.94-18.66h3.76l7.94,18.66Zm-5.61-13.76-2.46,6h4.92Z" transform="translate(-264.78 -245.15)"/><path class="cls-1" d="M506.26,348.53V330h4.08v14.82h9.23v3.7Z" transform="translate(-264.78 -245.15)"/></svg>